<svg width="25" height="25" viewBox="0 0 25 25" fill="none" xmlns="http://www.w3.org/2000/svg">
<path d="M3.5 14.5V10.5C3.5 6.729 3.5 4.843 4.672 3.672C5.843 2.5 7.729 2.5 11.5 2.5H13.5C17.271 2.5 19.157 2.5 20.328 3.672C20.982 4.325 21.271 5.2 21.398 6.5M21.5 10.5V14.5C21.5 18.271 21.5 20.157 20.328 21.328C19.157 22.5 17.271 22.5 13.5 22.5H11.5C7.729 22.5 5.843 22.5 4.672 21.328C4.018 20.675 3.729 19.8 3.602 18.5M8.5 14.5H13.5M8.5 10.5H9.5M16.5 10.5H12.5" stroke="white" stroke-width="1.5" stroke-linecap="round"/>
</svg>
